<svg xmlns="http://www.w3.org/2000/svg" viewBox="0 0 1200 1200"><defs><style>.cls-1{fill:#4676ed;}.cls-2{fill:#fff;}</style></defs><g id="Graphic_Elements" data-name="Graphic Elements"><path class="cls-1" d="M1126.32,600c0-290.68-235.64-526.32-526.32-526.32S73.68,309.32,73.68,600c0,262.7,192.47,480.44,444.08,519.92V752.14H384.13V600H517.76V484.05c0-131.91,78.58-204.77,198.8-204.77,57.58,0,117.81,10.28,117.81,10.28V419.08H768c-65.38,0-85.77,40.57-85.77,82.19V600h146L804.87,752.14H682.24v367.78C933.85,1080.44,1126.32,862.7,1126.32,600Z"/><path class="cls-2" d="M804.87,752.14,828.21,600h-146V501.27c0-41.62,20.39-82.19,85.77-82.19h66.36V289.56s-60.23-10.28-117.81-10.28c-120.22,0-198.8,72.86-198.8,204.77V600H384.13V752.14H517.76v367.78a531.59,531.59,0,0,0,164.48,0V752.14Z"/></g></svg>