<?xml version="1.0" encoding="UTF-8"?>
<svg id="Artwrok" xmlns="http://www.w3.org/2000/svg" version="1.1" viewBox="0, 0, 250,55.8178053830227">
  <defs>
    <style>
      .cls-1 {
        fill: #000;
      }

      .cls-1, .cls-2 {
        stroke-width: 0px;
      }

      .cls-2 {
        fill: #c00;
      }
    </style>
  </defs>
  <g>
    <path class="cls-2" d="M29.4,30.2c0,7.2-5.8,13-13,13s-13-5.8-13-13,5.8-13,13-13,13,5.8,13,13ZM16.4,21.5c-4.8,0-8.7,3.9-8.7,8.7s3.9,8.7,8.7,8.7,8.7-3.9,8.7-8.7-3.9-8.7-8.7-8.7Z"/>
    <circle class="cls-2" cx="16.4" cy="30.2" r="4.3"/>
  </g>
  <g>
    <path class="cls-1" d="M48,30.5c0,3.9-2.1,7.2-6.2,7.2s-3.3-.8-4.2-2.1h0v6.7h-3.9v-19h3.7v1.8h0c.9-1.5,2.4-2.2,4.2-2.2,4.3,0,6.4,3.4,6.4,7.5ZM40.9,34.8c2.4,0,3.3-2,3.3-4.5s-.8-4.5-3.4-4.5-3.3,1.7-3.3,4.5,1,4.5,3.4,4.5Z"/>
    <path class="cls-1" d="M61.8,33.7c0,.9.2,1.1,1,1.1h.1v2.5c-.4.2-.8.3-1.6.3-1.8,0-2.7-.5-3-1.8-.9,1.1-2.6,1.9-4.9,1.9s-4.8-1.5-4.8-4.2.4-2.3,1.2-3c.9-.8,2.2-1.2,4.5-1.4,2.5-.3,3.6-.5,3.6-1.7s-1.2-1.9-2.5-1.9-2.4.7-2.6,2.1h-3.9c.2-3.1,2.7-4.7,6.6-4.7s6.1,1.4,6.1,4v6.8ZM54.8,35.2c2.1,0,3.1-1.1,3.1-3.2v-1.5c-.4.3-1,.5-2.3.7-2,.2-3.1.7-3.1,2.2s.7,1.8,2.4,1.8Z"/>
    <path class="cls-1" d="M66.1,23.3l3.2,9.6h0l3.1-9.6h4l-5.9,15.8c-.8,2.2-2.2,3.2-4.8,3.2s-1.6,0-2.4-.1v-3.2c.8.1,1.5.1,2,.1,1.1,0,1.7-.8,1.7-1.8s0-.5-.2-.9l-4.9-13.2h4.1Z"/>
    <path class="cls-1" d="M92.6,22.4c0,2-1.2,3.6-3.4,4.8l2.5,3.1c.4-.6.6-1.4.7-2.3h3.3c-.2,2-.9,3.6-1.9,4.8l3.9,4.6h-4.7l-1.6-1.9c-1.5,1.5-3.3,2.3-5.5,2.3-3.6,0-6.3-2.3-6.3-5.8s1.5-4.3,4.3-5.6c-1.4-1.7-1.8-2.8-1.8-4.1,0-2.6,2.3-4.4,5.1-4.4s5.3,1.6,5.3,4.6ZM86.1,34.6c1.1,0,2.1-.5,3.3-1.7l-3.3-4c-1.7.7-2.7,1.8-2.7,3.2s1.3,2.6,2.8,2.6ZM87.2,25c1.4-.8,2-1.6,2-2.8s-.8-1.8-1.8-1.8-1.7.7-1.7,1.7.3,1.5,1.5,2.9Z"/>
    <path class="cls-1" d="M106.5,18v7.1h0c.8-1.3,2.4-2.1,4.4-2.1,2.8,0,5.8,2.3,5.8,7.4s-2.8,7.4-5.8,7.4-3.8-.8-4.6-2.2h0v1.8h-3.7v-19.4h3.9ZM109.6,34.8c2.2,0,3.3-2,3.3-4.5s-1.1-4.5-3.3-4.5-3.3,1.9-3.3,4.5,1.2,4.5,3.3,4.5Z"/>
    <path class="cls-1" d="M131.4,30.6c0,.2,0,.7,0,.7h-10.1c.1,2.4,1.2,3.6,3.4,3.6s2.8-.8,3.1-1.8h3.4c-1,3.2-3.2,4.7-6.6,4.7s-7.2-3.1-7.2-7.4,2.9-7.4,7.2-7.4,6.8,3.5,6.8,7.6ZM127.5,28.8c-.4-2.1-1.3-3-3.1-3s-3,1.1-3.2,3h6.3Z"/>
    <path class="cls-1" d="M145.2,28.6v8.7h-3.9v-8c0-2.3-.7-3.4-2.5-3.4s-3,1.6-3,4.1v7.3h-3.9v-14h3.7v2h0c.9-1.5,2.5-2.3,4.3-2.3,3.6,0,5.1,1.7,5.1,5.7Z"/>
    <path class="cls-1" d="M159.9,30.6c0,.2,0,.7,0,.7h-10.1c.1,2.4,1.2,3.6,3.4,3.6s2.8-.8,3.1-1.8h3.4c-1,3.2-3.2,4.7-6.6,4.7s-7.2-3.1-7.2-7.4,2.9-7.4,7.2-7.4,6.8,3.5,6.8,7.6ZM156.1,28.8c-.4-2.1-1.3-3-3.1-3s-3,1.1-3.2,3h6.3Z"/>
    <path class="cls-1" d="M168.6,18.1v2.9c-.5,0-1,0-1.4,0-1.1,0-1.5.4-1.5,1.6v.8h2.7v2.6h-2.7v11.5h-3.9v-11.5h-2.3v-2.6h2.3v-1c0-2.9,1.9-4.3,4.7-4.3s.9,0,2,.1Z"/>
    <path class="cls-1" d="M171.5,17.5c1.2,0,2.2,1,2.2,2.2s-1,2.2-2.2,2.2-2.2-1-2.2-2.2,1-2.2,2.2-2.2ZM173.4,23.3v14h-3.9v-14h3.9Z"/>
    <path class="cls-1" d="M180.6,19.1v4.2h2.8v2.6h-2.8v6.9c0,1.3.3,1.6,1.6,1.6s.9,0,1.2-.1v3c-.7.1-1.5.1-2.3.1-3,0-4.4-.9-4.4-3.4v-8.2h-2.3v-2.6h2.3v-4.2h3.9Z"/>
    <path class="cls-1" d="M196.5,27.4h-3.7c-.1-1.4-1-1.9-2.6-1.9s-2.1.5-2.1,1.3.8,1.4,3,1.8c2.8.6,3.9,1,4.7,1.7.7.7,1.1,1.5,1.1,2.5,0,3.6-3.1,4.9-6.4,4.9s-6.5-1.6-6.6-4.9h3.7c0,1.6,1.4,2.4,3,2.4s2.5-.6,2.5-1.8-1.2-1.5-4.2-2.1c-3.3-.7-4.6-1.8-4.6-3.8,0-3,2.2-4.5,6.1-4.5s5.9,1.6,6.2,4.5Z"/>
  </g>
</svg>